<svg width="48" height="48" viewBox="0 0 48 48" fill="none" xmlns="http://www.w3.org/2000/svg">
<rect width="48" height="48" rx="24" fill="#F0EBFF"/>
<path d="M28 20C29.1046 20 30 20.8954 30 22M34 22C34 25.3137 31.3137 28 28 28C27.3938 28 26.8087 27.9101 26.2571 27.7429L24 30H22V32H20V34H17C16.4477 34 16 33.5523 16 33V30.4142C16 30.149 16.1054 29.8946 16.2929 29.7071L22.2571 23.7429C22.0899 23.1914 22 22.6062 22 22C22 18.6863 24.6863 16 28 16C31.3137 16 34 18.6863 34 22Z" stroke="#6F3FF5" stroke-width="2" stroke-linecap="round" stroke-linejoin="round"/>
</svg>
