<svg width="16" height="12" viewBox="0 0 16 12" fill="none" xmlns="http://www.w3.org/2000/svg">
<path d="M7 0.804233C5.9428 0.289057 4.75516 0 3.5 0C2.24484 0 1.0572 0.289057 0 0.804233V10.8042C1.0572 10.2891 2.24484 10 3.5 10C5.1686 10 6.71789 10.5108 8 11.3847C9.28211 10.5108 10.8314 10 12.5 10C13.7552 10 14.9428 10.2891 16 10.8042V0.804233C14.9428 0.289057 13.7552 0 12.5 0C11.2448 0 10.0572 0.289057 9 0.804233V8C9 8.55228 8.55229 9 8 9C7.44772 9 7 8.55229 7 8V0.804233Z" fill="#757087"/>
</svg>
