<svg width="260" height="260" viewBox="0 0 260 260" fill="none" xmlns="http://www.w3.org/2000/svg">
<path d="M230.615 137.8C228.996 137.162 227.328 136.549 225.611 135.936C221.049 134.317 216.119 132.845 210.919 131.57C210.968 130.54 210.968 129.46 210.919 128.43C216.119 127.155 221.049 125.683 225.611 124.064C227.353 123.451 229.045 122.813 230.664 122.175C248.619 114.989 260 105.3 260 93.2075C260 78.7849 243.811 67.7962 219.626 60.3887C214.647 58.8434 209.3 57.4698 203.708 56.2924C202.53 50.7 201.157 45.3528 199.611 40.3736C192.204 16.1887 181.215 0 166.792 0C154.7 0 145.011 11.3811 137.825 29.3358C137.187 30.9547 136.549 32.6472 135.936 34.3887C134.341 38.9509 132.87 43.8811 131.57 49.0811C130.54 49.0566 129.46 49.0566 128.43 49.0811C127.155 43.8811 125.683 38.9509 124.064 34.3887C123.451 32.6717 122.838 31.0038 122.2 29.3849C115.013 11.4057 105.3 0 93.2075 0C78.7849 0 67.7962 16.1887 60.3887 40.3981C58.8679 45.3774 57.4943 50.7 56.2679 56.2924C50.6755 57.4943 45.3528 58.8679 40.3981 60.3887C16.1887 67.7962 0 78.7849 0 93.2075C0 105.3 11.3811 114.989 29.3604 122.175C30.9792 122.813 32.6472 123.451 34.3887 124.04C38.9509 125.658 43.8566 127.13 49.0811 128.43C49.0566 129.46 49.0566 130.54 49.0811 131.57C43.8566 132.87 38.9509 134.342 34.3887 135.96C32.6717 136.549 31.0038 137.162 29.4094 137.8C11.4057 144.987 0 154.675 0 166.792C0 181.215 16.1887 192.204 40.3981 199.611C45.3528 201.132 50.6755 202.506 56.2679 203.708C57.4698 209.275 58.8434 214.598 60.3887 219.577C67.7717 243.787 78.7849 260 93.2075 260C105.3 260 115.013 248.594 122.2 230.615C122.838 228.996 123.451 227.328 124.064 225.611C125.683 221.049 127.155 216.119 128.43 210.919C129.46 210.943 130.54 210.943 131.57 210.919C132.87 216.119 134.341 221.049 135.936 225.611C136.549 227.353 137.187 229.045 137.825 230.664C145.011 248.619 154.7 260 166.792 260C181.215 260 192.204 243.811 199.611 219.602C201.157 214.623 202.53 209.3 203.708 203.708C209.3 202.53 214.647 201.157 219.626 199.611C243.811 192.204 260 181.215 260 166.792C260 154.7 248.594 144.987 230.615 137.8ZM143.172 63.9698C148.151 64.117 153.326 64.3623 158.085 64.7057C164.389 65.1226 170.3 65.6868 175.868 66.3736C174.691 60.634 173.415 55.6057 172.091 51.2396C168.681 50.8962 165.247 50.5774 161.764 50.3075C156.785 49.8906 151.732 49.5962 146.655 49.4C148.2 43.8566 149.868 39.0245 151.56 34.8792C157.202 21.0943 163.162 14.717 166.792 14.717C170.643 14.717 177.192 21.9774 183.128 37.7491C188.451 51.8774 191.689 68.2868 193.626 84.1321C194.313 89.7 194.877 95.6113 195.294 101.915C200.74 100.762 205.523 99.5113 209.692 98.2358C209.423 94.7528 209.104 91.3189 208.76 87.9094C208.172 82.4887 207.46 77.166 206.651 72.0151C212.562 73.5113 217.762 75.1547 222.251 76.8717C238.023 82.8075 245.283 89.3566 245.283 93.2075C245.283 96.8377 238.906 102.798 225.121 108.44C211.875 113.811 196.104 117.221 181.362 119.33C173.611 120.434 165.051 121.292 155.73 121.857C153.081 113.517 146.508 106.919 138.143 104.27C138.708 94.949 139.566 86.3887 140.67 78.6377C141.406 73.4132 142.24 68.5075 143.172 63.9698ZM34.8792 108.44C21.0943 102.798 14.717 96.8377 14.717 93.2075C14.717 89.3566 21.9774 82.8075 37.7491 76.8717C51.8774 71.5491 68.2868 68.3113 84.1321 66.3736C89.7 65.6868 95.6113 65.1226 101.915 64.7057C100.762 59.2604 99.5113 54.4774 98.2358 50.3075C94.7528 50.5774 91.3189 50.8962 87.9094 51.2396C82.4887 51.8283 77.166 52.5396 72.0151 53.3491C73.5113 47.4377 75.1792 42.2377 76.8717 37.7491C82.8075 21.9774 89.3566 14.717 93.2075 14.717C96.8377 14.717 102.798 21.0943 108.44 34.8792C113.811 48.1245 117.221 63.8962 119.33 78.6377C120.434 86.3887 121.268 94.949 121.857 104.27C113.517 106.919 106.919 113.492 104.27 121.857C94.949 121.292 86.3887 120.434 78.6377 119.33C73.4132 118.594 68.5075 117.76 63.9698 116.828C64.117 111.849 64.3623 106.674 64.7057 101.915C65.1226 95.6113 65.6868 89.7 66.3736 84.1321C60.634 85.334 55.6057 86.6094 51.2396 87.9094C50.8962 91.2943 50.5774 94.7283 50.3075 98.2113C49.8906 103.191 49.5962 108.243 49.4 113.345C43.8566 111.8 39.0245 110.132 34.8792 108.44ZM116.828 196.03C111.849 195.883 106.674 195.638 101.915 195.294C95.6113 194.877 89.7 194.313 84.1321 193.626C85.3094 199.366 86.5849 204.394 87.9094 208.76C91.3189 209.104 94.7528 209.423 98.2358 209.692C103.215 210.109 108.268 210.404 113.345 210.6C111.8 216.143 110.132 220.975 108.44 225.121C102.798 238.906 96.8377 245.283 93.2075 245.283C89.3566 245.283 82.8075 238.023 76.8717 222.251C71.5491 208.123 68.2868 191.713 66.3736 175.868C65.6868 170.3 65.1226 164.389 64.7057 158.085C59.2604 159.238 54.4774 160.513 50.3075 161.789C50.5774 165.272 50.8962 168.706 51.2396 172.091C51.8283 177.511 52.5396 182.834 53.3491 187.985C47.4377 186.489 42.2377 184.821 37.7491 183.128C21.9774 177.192 14.717 170.643 14.717 166.792C14.717 163.162 21.0943 157.202 34.8792 151.56C48.2226 146.14 63.7491 142.779 78.6377 140.67C86.4132 139.566 94.9736 138.708 104.27 138.143C106.919 146.483 113.492 153.081 121.857 155.73C121.292 165.051 120.434 173.611 119.33 181.362C118.594 186.587 117.76 191.492 116.828 196.03ZM222.251 183.128C208.123 188.451 191.713 191.713 175.868 193.626C170.3 194.313 164.389 194.877 158.085 195.294C159.238 200.74 160.489 205.523 161.764 209.692C165.247 209.423 168.681 209.104 172.091 208.76C177.511 208.172 182.834 207.46 187.985 206.651C186.489 212.562 184.845 217.762 183.128 222.251C177.192 238.023 170.643 245.283 166.792 245.283C163.162 245.283 157.202 238.906 151.56 225.121C146.14 211.777 142.779 196.251 140.67 181.362C139.566 173.611 138.732 165.051 138.143 155.73C146.483 153.081 153.081 146.508 155.73 138.143C165.051 138.708 173.611 139.566 181.362 140.67C186.587 141.406 191.492 142.24 196.03 143.172C195.883 148.151 195.638 153.326 195.294 158.085C194.877 164.389 194.313 170.3 193.626 175.868C199.366 174.691 204.394 173.415 208.76 172.091C209.104 168.681 209.423 165.247 209.692 161.764C210.109 156.785 210.404 151.732 210.6 146.655C216.143 148.2 220.975 149.868 225.121 151.56C238.906 157.202 245.283 163.162 245.283 166.792C245.283 170.643 238.023 177.192 222.251 183.128Z" fill="white"/>
</svg>
