<svg width="180" height="180" viewBox="0 0 180 180" fill="none" xmlns="http://www.w3.org/2000/svg">
<path d="M159.657 95.4C158.536 94.9585 157.381 94.534 156.192 94.1094C153.034 92.9887 149.621 91.9698 146.021 91.0868C146.055 90.3736 146.055 89.6264 146.021 88.9132C149.621 88.0302 153.034 87.0113 156.192 85.8906C157.398 85.466 158.57 85.0245 159.691 84.583C172.121 79.6075 180 72.9 180 64.5283C180 54.5434 168.792 46.9358 152.049 41.8075C148.602 40.7377 144.9 39.7868 141.028 38.9717C140.213 35.1 139.262 31.3981 138.192 27.9509C133.064 11.2075 125.457 0 115.472 0C107.1 0 100.392 7.87924 95.417 20.3094C94.9755 21.4302 94.534 22.6019 94.1094 23.8075C93.0057 26.966 91.9868 30.3792 91.0868 33.9792C90.3736 33.9623 89.6264 33.9623 88.9132 33.9792C88.0302 30.3792 87.0113 26.966 85.8906 23.8075C85.466 22.6189 85.0415 21.4641 84.6 20.3434C79.6245 7.89623 72.9 0 64.5283 0C54.5434 0 46.9358 11.2075 41.8075 27.9679C40.7547 31.4151 39.8038 35.1 38.9547 38.9717C35.083 39.8038 31.3981 40.7547 27.9679 41.8075C11.2075 46.9358 0 54.5434 0 64.5283C0 72.9 7.87924 79.6075 20.3264 84.583C21.4472 85.0245 22.6019 85.466 23.8075 85.8736C26.966 86.9943 30.3623 88.0132 33.9792 88.9132C33.9623 89.6264 33.9623 90.3736 33.9792 91.0868C30.3623 91.9868 26.966 93.0057 23.8075 94.1264C22.6189 94.534 21.4641 94.9585 20.3604 95.4C7.89623 100.375 0 107.083 0 115.472C0 125.457 11.2075 133.064 27.9679 138.192C31.3981 139.245 35.083 140.196 38.9547 141.028C39.7868 144.883 40.7377 148.568 41.8075 152.015C46.9189 168.775 54.5434 180 64.5283 180C72.9 180 79.6245 172.104 84.6 159.657C85.0415 158.536 85.466 157.381 85.8906 156.192C87.0113 153.034 88.0302 149.621 88.9132 146.021C89.6264 146.038 90.3736 146.038 91.0868 146.021C91.9868 149.621 93.0057 153.034 94.1094 156.192C94.534 157.398 94.9755 158.57 95.417 159.691C100.392 172.121 107.1 180 115.472 180C125.457 180 133.064 168.792 138.192 152.032C139.262 148.585 140.213 144.9 141.028 141.028C144.9 140.213 148.602 139.262 152.049 138.192C168.792 133.064 180 125.457 180 115.472C180 107.1 172.104 100.375 159.657 95.4ZM99.1189 44.2868C102.566 44.3887 106.149 44.5585 109.443 44.7962C113.808 45.0849 117.9 45.4755 121.755 45.9509C120.94 41.9774 120.057 38.4962 119.14 35.4736C116.779 35.2358 114.402 35.0151 111.991 34.8283C108.543 34.5396 105.045 34.3358 101.53 34.2C102.6 30.3623 103.755 27.017 104.926 24.1472C108.832 14.6038 112.958 10.1887 115.472 10.1887C118.138 10.1887 122.672 15.2151 126.781 26.134C130.466 35.9151 132.708 47.2755 134.049 58.2453C134.525 62.1 134.915 66.1925 135.204 70.5566C138.974 69.7585 142.285 68.8924 145.172 68.0094C144.985 65.5981 144.764 63.2208 144.526 60.8604C144.119 57.1075 143.626 53.4226 143.066 49.8566C147.158 50.8924 150.758 52.0302 153.866 53.2189C164.785 57.3283 169.811 61.8623 169.811 64.5283C169.811 67.0415 165.396 71.1679 155.853 75.0736C146.683 78.7924 135.764 81.1528 125.558 82.6132C120.192 83.3774 114.266 83.9717 107.813 84.3623C105.979 78.5887 101.428 74.0208 95.6377 72.1868C96.0283 65.734 96.6226 59.8075 97.3868 54.4415C97.8962 50.8245 98.4736 47.4283 99.1189 44.2868ZM24.1472 75.0736C14.6038 71.1679 10.1887 67.0415 10.1887 64.5283C10.1887 61.8623 15.2151 57.3283 26.134 53.2189C35.9151 49.534 47.2755 47.2924 58.2453 45.9509C62.1 45.4755 66.1925 45.0849 70.5566 44.7962C69.7585 41.0264 68.8924 37.7151 68.0094 34.8283C65.5981 35.0151 63.2208 35.2358 60.8604 35.4736C57.1075 35.8811 53.4226 36.3736 49.8566 36.934C50.8924 32.8415 52.0472 29.2415 53.2189 26.134C57.3283 15.2151 61.8623 10.1887 64.5283 10.1887C67.0415 10.1887 71.1679 14.6038 75.0736 24.1472C78.7924 33.317 81.1528 44.2358 82.6132 54.4415C83.3774 59.8075 83.9547 65.734 84.3623 72.1868C78.5887 74.0208 74.0208 78.5717 72.1868 84.3623C65.734 83.9717 59.8075 83.3774 54.4415 82.6132C50.8245 82.1038 47.4283 81.5264 44.2868 80.8811C44.3887 77.434 44.5585 73.8509 44.7962 70.5566C45.0849 66.1925 45.4755 62.1 45.9509 58.2453C41.9774 59.0774 38.4962 59.9604 35.4736 60.8604C35.2358 63.2038 35.0151 65.5811 34.8283 67.9925C34.5396 71.4396 34.3358 74.9377 34.2 78.4698C30.3623 77.4 27.017 76.2453 24.1472 75.0736ZM80.8811 135.713C77.434 135.611 73.8509 135.442 70.5566 135.204C66.1925 134.915 62.1 134.525 58.2453 134.049C59.0604 138.023 59.9434 141.504 60.8604 144.526C63.2208 144.764 65.5981 144.985 68.0094 145.172C71.4566 145.46 74.9547 145.664 78.4698 145.8C77.4 149.638 76.2453 152.983 75.0736 155.853C71.1679 165.396 67.0415 169.811 64.5283 169.811C61.8623 169.811 57.3283 164.785 53.2189 153.866C49.534 144.085 47.2755 132.725 45.9509 121.755C45.4755 117.9 45.0849 113.808 44.7962 109.443C41.0264 110.242 37.7151 111.125 34.8283 112.008C35.0151 114.419 35.2358 116.796 35.4736 119.14C35.8811 122.892 36.3736 126.577 36.934 130.143C32.8415 129.108 29.2415 127.953 26.134 126.781C15.2151 122.672 10.1887 118.138 10.1887 115.472C10.1887 112.958 14.6038 108.832 24.1472 104.926C33.3849 101.174 44.134 98.8472 54.4415 97.3868C59.8245 96.6226 65.7509 96.0283 72.1868 95.6377C74.0208 101.411 78.5717 105.979 84.3623 107.813C83.9717 114.266 83.3774 120.192 82.6132 125.558C82.1038 129.175 81.5264 132.572 80.8811 135.713ZM153.866 126.781C144.085 130.466 132.725 132.725 121.755 134.049C117.9 134.525 113.808 134.915 109.443 135.204C110.242 138.974 111.108 142.285 111.991 145.172C114.402 144.985 116.779 144.764 119.14 144.526C122.892 144.119 126.577 143.626 130.143 143.066C129.108 147.158 127.97 150.758 126.781 153.866C122.672 164.785 118.138 169.811 115.472 169.811C112.958 169.811 108.832 165.396 104.926 155.853C101.174 146.615 98.8472 135.866 97.3868 125.558C96.6226 120.192 96.0453 114.266 95.6377 107.813C101.411 105.979 105.979 101.428 107.813 95.6377C114.266 96.0283 120.192 96.6226 125.558 97.3868C129.175 97.8962 132.572 98.4736 135.713 99.1189C135.611 102.566 135.442 106.149 135.204 109.443C134.915 113.808 134.525 117.9 134.049 121.755C138.023 120.94 141.504 120.057 144.526 119.14C144.764 116.779 144.985 114.402 145.172 111.991C145.46 108.543 145.664 105.045 145.8 101.53C149.638 102.6 152.983 103.755 155.853 104.926C165.396 108.832 169.811 112.958 169.811 115.472C169.811 118.138 164.785 122.672 153.866 126.781Z" fill="black"/>
</svg>
