<svg width="68" height="14" viewBox="0 0 68 14" fill="none" xmlns="http://www.w3.org/2000/svg">
<path d="M7.88822 4.0241C7.54688 3.74676 7.20555 3.5441 6.86421 3.4161C6.52288 3.27743 6.19222 3.2081 5.87222 3.2081C5.46688 3.2081 5.13621 3.3041 4.88021 3.4961C4.62421 3.6881 4.49622 3.93876 4.49622 4.2481C4.49622 4.46143 4.56021 4.63743 4.68822 4.7761C4.81622 4.91476 4.98155 5.03743 5.18421 5.1441C5.39755 5.2401 5.63222 5.32543 5.88822 5.4001C6.15488 5.47476 6.41622 5.55476 6.67222 5.6401C7.69622 5.98143 8.44288 6.4401 8.91222 7.0161C9.39222 7.58143 9.63222 8.32276 9.63222 9.2401C9.63222 9.85876 9.52555 10.4188 9.31221 10.9201C9.10955 11.4214 8.80555 11.8534 8.40022 12.2161C8.00555 12.5681 7.51488 12.8401 6.92822 13.0321C6.35221 13.2348 5.69621 13.3361 4.96021 13.3361C3.43488 13.3361 2.02155 12.8828 0.720215 11.9761L2.06421 9.4481C2.53355 9.8641 2.99755 10.1734 3.45621 10.3761C3.91488 10.5788 4.36822 10.6801 4.81622 10.6801C5.32822 10.6801 5.70688 10.5628 5.95222 10.3281C6.20822 10.0934 6.33622 9.82677 6.33622 9.5281C6.33622 9.34676 6.30422 9.1921 6.24022 9.0641C6.17622 8.92543 6.06955 8.80276 5.92021 8.6961C5.77088 8.57876 5.57355 8.4721 5.32821 8.3761C5.09355 8.2801 4.80555 8.17343 4.46422 8.0561C4.05888 7.9281 3.65888 7.78943 3.26421 7.6401C2.88021 7.4801 2.53355 7.2721 2.22422 7.0161C1.92555 6.7601 1.68021 6.4401 1.48821 6.0561C1.30688 5.66143 1.21621 5.16543 1.21621 4.5681C1.21621 3.97076 1.31221 3.4321 1.50421 2.9521C1.70688 2.46143 1.98421 2.04543 2.33622 1.7041C2.69888 1.3521 3.13621 1.0801 3.64822 0.888098C4.17088 0.696098 4.75221 0.600098 5.39221 0.600098C5.98955 0.600098 6.61355 0.685431 7.26422 0.856097C7.91488 1.0161 8.53888 1.2561 9.13622 1.5761L7.88822 4.0241Z" fill="white"/>
<path d="M20.296 4.9681C19.5706 4.08276 18.6746 3.6401 17.608 3.6401C17.1386 3.6401 16.7013 3.72543 16.296 3.8961C15.9013 4.06676 15.56 4.30143 15.272 4.6001C14.984 4.8881 14.7546 5.23476 14.584 5.6401C14.424 6.04543 14.344 6.48276 14.344 6.9521C14.344 7.4321 14.424 7.87476 14.584 8.2801C14.7546 8.68543 14.984 9.03743 15.272 9.3361C15.5706 9.63476 15.9173 9.86943 16.312 10.0401C16.7066 10.2108 17.1333 10.2961 17.592 10.2961C18.5946 10.2961 19.496 9.86943 20.296 9.0161V12.7281L19.976 12.8401C19.496 13.0108 19.048 13.1334 18.632 13.2081C18.216 13.2934 17.8053 13.3361 17.4 13.3361C16.568 13.3361 15.768 13.1814 15 12.8721C14.2426 12.5521 13.5706 12.1094 12.984 11.5441C12.408 10.9681 11.944 10.2908 11.592 9.5121C11.24 8.72276 11.064 7.8641 11.064 6.9361C11.064 6.0081 11.2346 5.1601 11.576 4.3921C11.928 3.61343 12.392 2.94676 12.968 2.3921C13.5546 1.82676 14.232 1.38943 15 1.0801C15.768 0.760098 16.5733 0.600098 17.416 0.600098C17.896 0.600098 18.3653 0.653431 18.824 0.760098C19.2933 0.856098 19.784 1.01076 20.296 1.2241V4.9681Z" fill="white"/>
<path d="M25.1877 6.9681C25.1877 7.4481 25.2784 7.89076 25.4597 8.2961C25.641 8.70143 25.8864 9.05343 26.1957 9.3521C26.505 9.65076 26.8624 9.88543 27.2677 10.0561C27.6837 10.2161 28.121 10.2961 28.5797 10.2961C29.0384 10.2961 29.4704 10.2161 29.8757 10.0561C30.2917 9.88543 30.6544 9.65076 30.9637 9.3521C31.2837 9.05343 31.5344 8.70143 31.7157 8.2961C31.897 7.89076 31.9877 7.4481 31.9877 6.9681C31.9877 6.4881 31.897 6.04543 31.7157 5.6401C31.5344 5.23476 31.2837 4.88276 30.9637 4.5841C30.6544 4.28543 30.2917 4.0561 29.8757 3.8961C29.4704 3.72543 29.0384 3.6401 28.5797 3.6401C28.121 3.6401 27.6837 3.72543 27.2677 3.8961C26.8624 4.0561 26.505 4.28543 26.1957 4.5841C25.8864 4.88276 25.641 5.23476 25.4597 5.6401C25.2784 6.04543 25.1877 6.4881 25.1877 6.9681ZM21.9077 6.9681C21.9077 6.0721 22.073 5.2401 22.4037 4.4721C22.7344 3.69343 23.193 3.0161 23.7797 2.4401C24.3664 1.8641 25.065 1.4161 25.8757 1.0961C26.697 0.765431 27.5984 0.600098 28.5797 0.600098C29.5504 0.600098 30.4464 0.765431 31.2677 1.0961C32.0891 1.4161 32.793 1.8641 33.3797 2.4401C33.977 3.0161 34.441 3.69343 34.7717 4.4721C35.1024 5.2401 35.2677 6.0721 35.2677 6.9681C35.2677 7.8641 35.1024 8.70143 34.7717 9.4801C34.441 10.2481 33.977 10.9201 33.3797 11.4961C32.793 12.0721 32.0891 12.5254 31.2677 12.8561C30.4464 13.1761 29.5504 13.3361 28.5797 13.3361C27.5984 13.3361 26.697 13.1761 25.8757 12.8561C25.065 12.5254 24.3664 12.0721 23.7797 11.4961C23.193 10.9201 22.7344 10.2481 22.4037 9.4801C22.073 8.70143 21.9077 7.8641 21.9077 6.9681Z" fill="white"/>
<path d="M40.3846 6.3281H40.9766C41.5953 6.3281 42.0699 6.2001 42.4006 5.9441C42.7313 5.6881 42.8966 5.3201 42.8966 4.8401C42.8966 4.3601 42.7313 3.9921 42.4006 3.7361C42.0699 3.4801 41.5953 3.3521 40.9766 3.3521H40.3846V6.3281ZM47.2806 13.0001H43.3766L40.3846 8.3601V13.0001H37.2486V0.936098H42.1286C42.8006 0.936098 43.3873 1.03743 43.8886 1.2401C44.3899 1.4321 44.8006 1.69876 45.1206 2.0401C45.4513 2.38143 45.6966 2.7761 45.8566 3.2241C46.0273 3.6721 46.1126 4.1521 46.1126 4.6641C46.1126 5.58143 45.8886 6.3281 45.4406 6.9041C45.0033 7.46943 44.3526 7.85343 43.4886 8.0561L47.2806 13.0001Z" fill="white"/>
<path d="M55.4563 3.5921H51.7283V5.6081H55.2483V8.2641H51.7283V10.3441H55.4563V13.0001H48.5923V0.936098H55.4563V3.5921Z" fill="white"/>
<path d="M60.8533 6.3281H61.4453C62.064 6.3281 62.5387 6.2001 62.8693 5.9441C63.2 5.6881 63.3653 5.3201 63.3653 4.8401C63.3653 4.3601 63.2 3.9921 62.8693 3.7361C62.5387 3.4801 62.064 3.3521 61.4453 3.3521H60.8533V6.3281ZM67.7493 13.0001H63.8453L60.8533 8.3601V13.0001H57.7173V0.936098H62.5973C63.2693 0.936098 63.856 1.03743 64.3573 1.2401C64.8587 1.4321 65.2693 1.69876 65.5893 2.0401C65.92 2.38143 66.1653 2.7761 66.3253 3.2241C66.496 3.6721 66.5813 4.1521 66.5813 4.6641C66.5813 5.58143 66.3573 6.3281 65.9093 6.9041C65.472 7.46943 64.8213 7.85343 63.9573 8.0561L67.7493 13.0001Z" fill="white"/>
</svg>
