<svg width="68" height="14" viewBox="0 0 68 14" fill="none" xmlns="http://www.w3.org/2000/svg">
<path d="M7.88797 4.0241C7.54664 3.74676 7.2053 3.5441 6.86397 3.4161C6.52264 3.27743 6.19197 3.2081 5.87197 3.2081C5.46664 3.2081 5.13597 3.3041 4.87997 3.4961C4.62397 3.6881 4.49597 3.93876 4.49597 4.2481C4.49597 4.46143 4.55997 4.63743 4.68797 4.7761C4.81597 4.91476 4.9813 5.03743 5.18397 5.1441C5.3973 5.2401 5.63197 5.32543 5.88797 5.4001C6.15464 5.47476 6.41597 5.55476 6.67197 5.6401C7.69597 5.98143 8.44264 6.4401 8.91197 7.0161C9.39197 7.58143 9.63197 8.32276 9.63197 9.2401C9.63197 9.85876 9.5253 10.4188 9.31197 10.9201C9.1093 11.4214 8.8053 11.8534 8.39997 12.2161C8.0053 12.5681 7.51464 12.8401 6.92797 13.0321C6.35197 13.2348 5.69597 13.3361 4.95997 13.3361C3.43464 13.3361 2.0213 12.8828 0.719971 11.9761L2.06397 9.4481C2.5333 9.8641 2.9973 10.1734 3.45597 10.3761C3.91464 10.5788 4.36797 10.6801 4.81597 10.6801C5.32797 10.6801 5.70664 10.5628 5.95197 10.3281C6.20797 10.0934 6.33597 9.82677 6.33597 9.5281C6.33597 9.34676 6.30397 9.1921 6.23997 9.0641C6.17597 8.92543 6.0693 8.80276 5.91997 8.6961C5.77064 8.57876 5.5733 8.4721 5.32797 8.3761C5.0933 8.2801 4.8053 8.17343 4.46397 8.0561C4.05864 7.9281 3.65864 7.78943 3.26397 7.6401C2.87997 7.4801 2.5333 7.2721 2.22397 7.0161C1.9253 6.7601 1.67997 6.4401 1.48797 6.0561C1.30664 5.66143 1.21597 5.16543 1.21597 4.5681C1.21597 3.97076 1.31197 3.4321 1.50397 2.9521C1.70664 2.46143 1.98397 2.04543 2.33597 1.7041C2.69864 1.3521 3.13597 1.0801 3.64797 0.888098C4.17064 0.696098 4.75197 0.600098 5.39197 0.600098C5.9893 0.600098 6.6133 0.685431 7.26397 0.856097C7.91464 1.0161 8.53864 1.2561 9.13597 1.5761L7.88797 4.0241Z" fill="#0E0333"/>
<path d="M20.2957 4.9681C19.5704 4.08276 18.6744 3.6401 17.6077 3.6401C17.1384 3.6401 16.7011 3.72543 16.2957 3.8961C15.9011 4.06676 15.5597 4.30143 15.2717 4.6001C14.9837 4.8881 14.7544 5.23476 14.5837 5.6401C14.4237 6.04543 14.3437 6.48276 14.3437 6.9521C14.3437 7.4321 14.4237 7.87476 14.5837 8.2801C14.7544 8.68543 14.9837 9.03743 15.2717 9.3361C15.5704 9.63476 15.9171 9.86943 16.3117 10.0401C16.7064 10.2108 17.1331 10.2961 17.5917 10.2961C18.5944 10.2961 19.4957 9.86943 20.2957 9.0161V12.7281L19.9757 12.8401C19.4957 13.0108 19.0477 13.1334 18.6317 13.2081C18.2157 13.2934 17.8051 13.3361 17.3997 13.3361C16.5677 13.3361 15.7677 13.1814 14.9997 12.8721C14.2424 12.5521 13.5704 12.1094 12.9837 11.5441C12.4077 10.9681 11.9437 10.2908 11.5917 9.5121C11.2397 8.72276 11.0637 7.8641 11.0637 6.9361C11.0637 6.0081 11.2344 5.1601 11.5757 4.3921C11.9277 3.61343 12.3917 2.94676 12.9677 2.3921C13.5544 1.82676 14.2317 1.38943 14.9997 1.0801C15.7677 0.760098 16.5731 0.600098 17.4157 0.600098C17.8957 0.600098 18.3651 0.653431 18.8237 0.760098C19.2931 0.856098 19.7837 1.01076 20.2957 1.2241V4.9681Z" fill="#0E0333"/>
<path d="M25.1875 6.9681C25.1875 7.4481 25.2781 7.89076 25.4595 8.2961C25.6408 8.70143 25.8861 9.05343 26.1955 9.3521C26.5048 9.65076 26.8621 9.88543 27.2675 10.0561C27.6835 10.2161 28.1208 10.2961 28.5795 10.2961C29.0381 10.2961 29.4701 10.2161 29.8755 10.0561C30.2915 9.88543 30.6541 9.65076 30.9635 9.3521C31.2835 9.05343 31.5341 8.70143 31.7155 8.2961C31.8968 7.89076 31.9875 7.4481 31.9875 6.9681C31.9875 6.4881 31.8968 6.04543 31.7155 5.6401C31.5341 5.23476 31.2835 4.88276 30.9635 4.5841C30.6541 4.28543 30.2915 4.0561 29.8755 3.8961C29.4701 3.72543 29.0381 3.6401 28.5795 3.6401C28.1208 3.6401 27.6835 3.72543 27.2675 3.8961C26.8621 4.0561 26.5048 4.28543 26.1955 4.5841C25.8861 4.88276 25.6408 5.23476 25.4595 5.6401C25.2781 6.04543 25.1875 6.4881 25.1875 6.9681ZM21.9075 6.9681C21.9075 6.0721 22.0728 5.2401 22.4035 4.4721C22.7341 3.69343 23.1928 3.0161 23.7795 2.4401C24.3661 1.8641 25.0648 1.4161 25.8755 1.0961C26.6968 0.765431 27.5981 0.600098 28.5795 0.600098C29.5501 0.600098 30.4461 0.765431 31.2675 1.0961C32.0888 1.4161 32.7928 1.8641 33.3795 2.4401C33.9768 3.0161 34.4408 3.69343 34.7715 4.4721C35.1021 5.2401 35.2675 6.0721 35.2675 6.9681C35.2675 7.8641 35.1021 8.70143 34.7715 9.4801C34.4408 10.2481 33.9768 10.9201 33.3795 11.4961C32.7928 12.0721 32.0888 12.5254 31.2675 12.8561C30.4461 13.1761 29.5501 13.3361 28.5795 13.3361C27.5981 13.3361 26.6968 13.1761 25.8755 12.8561C25.0648 12.5254 24.3661 12.0721 23.7795 11.4961C23.1928 10.9201 22.7341 10.2481 22.4035 9.4801C22.0728 8.70143 21.9075 7.8641 21.9075 6.9681Z" fill="#0E0333"/>
<path d="M40.3843 6.3281H40.9763C41.595 6.3281 42.0697 6.2001 42.4003 5.9441C42.731 5.6881 42.8963 5.3201 42.8963 4.8401C42.8963 4.3601 42.731 3.9921 42.4003 3.7361C42.0697 3.4801 41.595 3.3521 40.9763 3.3521H40.3843V6.3281ZM47.2803 13.0001H43.3763L40.3843 8.3601V13.0001H37.2483V0.936098H42.1283C42.8003 0.936098 43.387 1.03743 43.8883 1.2401C44.3897 1.4321 44.8003 1.69876 45.1203 2.0401C45.451 2.38143 45.6963 2.7761 45.8563 3.2241C46.027 3.6721 46.1123 4.1521 46.1123 4.6641C46.1123 5.58143 45.8883 6.3281 45.4403 6.9041C45.003 7.46943 44.3523 7.85343 43.4883 8.0561L47.2803 13.0001Z" fill="#0E0333"/>
<path d="M55.4561 3.5921H51.7281V5.6081H55.2481V8.2641H51.7281V10.3441H55.4561V13.0001H48.5921V0.936098H55.4561V3.5921Z" fill="#0E0333"/>
<path d="M60.8531 6.3281H61.4451C62.0638 6.3281 62.5384 6.2001 62.8691 5.9441C63.1998 5.6881 63.3651 5.3201 63.3651 4.8401C63.3651 4.3601 63.1998 3.9921 62.8691 3.7361C62.5384 3.4801 62.0638 3.3521 61.4451 3.3521H60.8531V6.3281ZM67.7491 13.0001H63.8451L60.8531 8.3601V13.0001H57.7171V0.936098H62.5971C63.2691 0.936098 63.8558 1.03743 64.3571 1.2401C64.8584 1.4321 65.2691 1.69876 65.5891 2.0401C65.9198 2.38143 66.1651 2.7761 66.3251 3.2241C66.4958 3.6721 66.5811 4.1521 66.5811 4.6641C66.5811 5.58143 66.3571 6.3281 65.9091 6.9041C65.4718 7.46943 64.8211 7.85343 63.9571 8.0561L67.7491 13.0001Z" fill="#0E0333"/>
</svg>
