<svg width="32" height="32" viewBox="0 0 32 32" fill="none" xmlns="http://www.w3.org/2000/svg">
<path d="M14.2679 4C15.0377 2.66667 16.9622 2.66667 17.732 4L30.7224 26.5C31.4922 27.8333 30.53 29.5 28.9904 29.5H3.00962C1.47002 29.5 0.507767 27.8333 1.27757 26.5L14.2679 4Z" fill="#FFCC00"/>
<path d="M28 14.2679C29.3333 15.0378 29.3333 16.9622 28 17.732L7 29.8564C5.66666 30.6262 4 29.664 4 28.1244L4 3.87564C4 2.33604 5.66667 1.37379 7 2.14359L28 14.2679Z" fill="#6F3FF5"/>
<path d="M22.0175 24.3011C21.619 25.7883 19.7601 26.2864 18.6714 25.1977L8.80243 15.3287C7.71377 14.2401 8.21187 12.3811 9.69901 11.9827L23.1803 8.37035C24.6675 7.97187 26.0283 9.33269 25.6298 10.8198L22.0175 24.3011Z" fill="#02E2AC"/>
</svg>
