<svg width="16" height="14" viewBox="0 0 16 14" fill="none" xmlns="http://www.w3.org/2000/svg">
<path fill-rule="evenodd" clip-rule="evenodd" d="M0 2C0 0.89543 0.895431 0 2 0H14C15.1046 0 16 0.895431 16 2V12C16 13.1046 15.1046 14 14 14H2C0.895431 14 0 13.1046 0 12V2ZM3.29289 3.29289C3.68342 2.90237 4.31658 2.90237 4.70711 3.29289L7.70711 6.29289C8.09763 6.68342 8.09763 7.31658 7.70711 7.70711L4.70711 10.7071C4.31658 11.0976 3.68342 11.0976 3.29289 10.7071C2.90237 10.3166 2.90237 9.68342 3.29289 9.29289L5.58579 7L3.29289 4.70711C2.90237 4.31658 2.90237 3.68342 3.29289 3.29289ZM9 9C8.44771 9 8 9.44771 8 10C8 10.5523 8.44771 11 9 11H12C12.5523 11 13 10.5523 13 10C13 9.44771 12.5523 9 12 9H9Z" fill="#757087"/>
</svg>
